<?xml version="1.0" encoding="iso-8859-1"?>
<!-- Generator: Adobe Illustrator 15.1.0, SVG Export Plug-In . SVG Version: 6.00 Build 0)  -->
<!DOCTYPE svg PUBLIC "-//W3C//DTD SVG 1.1//EN" "http://www.w3.org/Graphics/SVG/1.1/DTD/svg11.dtd">
<svg version="1.1" id="Ebene_1" xmlns="http://www.w3.org/2000/svg" xmlns:xlink="http://www.w3.org/1999/xlink" x="0px" y="0px"
	 width="9.892px" height="9.892px" viewBox="0 0 9.892 9.892" enable-background="new 0 0 9.892 9.892" xml:space="preserve">
<g>
	<circle fill="#FFFFFF" cx="4.946" cy="4.946" r="4.946"/>
	<g>
		<path d="M7.129,6.688c0,0.359-0.141,0.539-0.422,0.539c-0.125,0-0.318-0.152-0.58-0.457C5.682,6.251,5.304,5.854,4.993,5.579
			C3.929,6.589,3.268,7.093,3.01,7.093c-0.125,0-0.231-0.041-0.319-0.125S2.559,6.782,2.559,6.665c0-0.164,0.162-0.373,0.486-0.626
			c0.578-0.445,1.005-0.806,1.28-1.081c-0.432-0.35-0.86-0.698-1.286-1.046c-0.32-0.273-0.48-0.477-0.48-0.609
			c0-0.102,0.046-0.192,0.138-0.272S2.893,2.91,3.01,2.91c0.25,0,0.911,0.454,1.983,1.362c0.357-0.381,0.714-0.763,1.069-1.146
			C6.344,2.83,6.566,2.681,6.73,2.681c0.105,0,0.198,0.038,0.278,0.114s0.12,0.169,0.12,0.278c0,0.234-0.476,0.862-1.427,1.884
			c0.529,0.463,0.88,0.794,1.052,0.993C7.004,6.244,7.129,6.49,7.129,6.688z"/>
	</g>
</g>
</svg>
