<?xml version="1.0" encoding="utf-8"?>
<!-- Generator: Adobe Illustrator 13.0.0, SVG Export Plug-In . SVG Version: 6.00 Build 14948)  -->
<!DOCTYPE svg PUBLIC "-//W3C//DTD SVG 1.1//EN" "http://www.w3.org/Graphics/SVG/1.1/DTD/svg11.dtd">
<svg version="1.1" id="Ebene_1" xmlns="http://www.w3.org/2000/svg" xmlns:xlink="http://www.w3.org/1999/xlink" x="0px" y="0px"
	 width="150px" height="150px" viewBox="0 0 150 150" enable-background="new 0 0 150 150" xml:space="preserve">
<circle fill="#FFFFFF" cx="75" cy="75" r="75"/>
<g>
	<polygon points="7.598,74.01 31.842,50.254 31.842,61.373 18.283,75.691 31.842,90.01 31.842,101.129 7.598,77.373 	"/>
</g>
<g>
	<polygon points="143.848,77.373 119.604,101.129 119.604,90.011 133.162,75.691 119.604,61.374 119.604,50.254 143.848,74.01 	"/>
</g>
<g>
	<polygon points="74.042,143.316 50.285,119.072 61.404,119.072 75.723,132.632 90.041,119.072 101.16,119.072 77.404,143.316 	"/>
</g>
<g>
	<polygon points="77.404,7.066 101.16,31.311 90.042,31.311 75.723,17.752 61.405,31.311 50.286,31.311 74.042,7.066 	"/>
</g>
</svg>
