<?xml version="1.0" encoding="utf-8"?>
<!-- Generator: Adobe Illustrator 16.0.3, SVG Export Plug-In . SVG Version: 6.00 Build 0)  -->
<!DOCTYPE svg PUBLIC "-//W3C//DTD SVG 1.1//EN" "http://www.w3.org/Graphics/SVG/1.1/DTD/svg11.dtd">
<svg version="1.1" id="Ebene_1" xmlns="http://www.w3.org/2000/svg" xmlns:xlink="http://www.w3.org/1999/xlink" x="0px" y="0px"
	 width="50px" height="50px" viewBox="0 0 50 50" enable-background="new 0 0 50 50" xml:space="preserve">
<rect x="11.532" y="10.84" fill="#FFFFFF" width="26.961" height="13.273"/>
<circle fill="none" cx="25" cy="25" r="25"/>
<g>
	<path fill="#FFED00" d="M24.999,2.5c-9.794,0-17.75,7.681-17.75,17.155V47.5h0.012l5.9-10.22l5.901,10.22h0.031l5.901-10.22
		l5.9,10.22h0.005l5.9-10.22l5.899,10.22h0.051V19.655C42.75,10.181,34.794,2.5,24.999,2.5z M17.43,23.035
		c-3.078,0-5.573-2.494-5.573-5.573c0-3.078,2.495-5.574,5.573-5.574c3.079,0,5.573,2.496,5.573,5.574
		C23.003,20.541,20.509,23.035,17.43,23.035z M32.678,23.035c-3.078,0-5.573-2.494-5.573-5.573c0-3.078,2.495-5.574,5.573-5.574
		s5.574,2.496,5.574,5.574C38.252,20.541,35.756,23.035,32.678,23.035z"/>
	<circle fill="#FFED00" cx="14.478" cy="16.807" r="2.295">
       <animateMotion path="M 0 0 H 6 Z" dur="1.5s" repeatCount="indefinite" />
    </circle>
	<circle fill="#FFED00" cx="29.781" cy="16.807" r="2.296">
         <animateMotion path="M 0 0 H 6 Z" dur="1.5s" repeatCount="indefinite" />
    </circle>
</g>
</svg>
